<?xml version="1.0" encoding="UTF-8" standalone="no"?>
<svg width="512px" height="512px" viewBox="0 0 512 512" version="1.1" xmlns="http://www.w3.org/2000/svg" xmlns:xlink="http://www.w3.org/1999/xlink">
    <!-- Generator: Sketch 3.6.1 (26313) - http://www.bohemiancoding.com/sketch -->
    <title>IMG_0095</title>
    <desc>Created with Sketch.</desc>
    <defs>
        <linearGradient x1="50%" y1="0%" x2="50%" y2="100%" id="linearGradient-1">
            <stop stop-color="#FFFFFF" offset="0%"></stop>
            <stop stop-color="#000000" offset="100%"></stop>
        </linearGradient>
    </defs>
    <g id="Page-1" stroke="none" stroke-width="1" fill="none" fill-rule="evenodd">
        <g id="igoki" transform="translate(-187.000000, -10.000000)">
            <g id="Page-1">
                <path d="M182.146871,3.20600183 L180.106568,39.4228117 L255.911372,0.82724199 L182.146871,3.20600183 L182.146871,3.20600183 Z" id="Path-14" fill="#FFFFFF"></path>
                <path d="M187.164448,27.9133619 L246.084647,4.61719537 L721.310764,4.93653049 L709.512574,530.124253 L176.199971,527.104911 L180.789219,30.2787364 L187.164448,27.9133619 L187.164448,27.9133619 Z" id="Path-13" fill="#CEA450"></path>
                <path d="M643.468365,87.5277818 L619.536093,200.120197 L734.252472,205.452217 L706.745636,208.769862 L618.62698,204.397236 L592.207638,328.690388 L709.906485,338.333873 L703.810434,346.688215 L590.332193,337.513659 L550.076387,526.902219 L526.181706,523.930682 L573.413533,336.145809 L198.760536,305.855642 L152.48886,346.567747 L152.48886,332.188106 L184.666106,304.716127 L127.850339,300.122653 L127.850339,290.643945 L194.730257,296.123654 L319.549807,189.556424 L125.984045,179.9513 L95.3489071,175.755963 L323.30387,186.351316 L396.841918,123.566711 L194.165184,115.646098 L187.195043,118.996535 L180.603737,118.986974 L188.140689,115.41066 L170.979703,114.740008 L132.16232,111.093469 L192.192524,113.488049 L272.905069,75.1896256 L184.940575,72.2607882 L140.105542,68.893428 L276.535384,73.4670266 L425.776619,2.65146778 L417.11442,8.47789965 L281.562552,73.6355546 L448.760003,79.2405896 L531.239439,8.8220932 L535.91091,9.2140914 L456.044185,79.4847805 L636.448018,85.5325389 L656.149189,7.20438353 L661.367543,3.31882075 L643.839796,85.7803367 L740.568402,89.0230131 L758.785809,91.3673543 L643.468365,87.5277818 L643.468365,87.5277818 Z M636.008645,87.2794054 L607.764442,199.573051 L334.018147,186.849316 L405.555479,123.907238 L573.967251,130.488775 L538.092709,127.285863 L407.63023,122.081769 L454.070144,81.2216397 L636.008645,87.2794054 L636.008645,87.2794054 Z M446.726056,80.9771133 L398.985108,121.736919 L198.159546,113.726071 L277.978118,75.3585362 L446.726056,80.9771133 L446.726056,80.9771133 Z M208.535894,297.254799 L330.333196,190.091517 L606.699919,203.805391 L575.630353,327.332152 L208.535894,297.254799 L208.535894,297.254799 Z M185.579246,48.075455 L290.847017,8.63469893 L304.981906,1.8636471 L170.93381,52.1006073 L185.579246,48.075455 L185.579246,48.075455 Z" id="Path-4" fill="#000000"></path>
                <path d="M703.397402,55.422075 L194.120982,43.9604299" id="Path-11" stroke="#000000" fill="#000000"></path>
                <path d="M703.600094,33.7952472 L247.744426,23.9819067" id="Path-12" stroke="#000000" fill="#000000"></path>
                <rect id="Rectangle-1" fill="url(#linearGradient-1)" style="mix-blend-mode: screen;" x="353" y="1" width="381" height="202"></rect>
                <ellipse id="Oval-4" fill-opacity="0.2" fill="#000000" cx="608" cy="225.5" rx="124" ry="33.5"></ellipse>
                <ellipse id="Oval-5" fill-opacity="0.2" fill="#000000" cx="186" cy="321" rx="163" ry="62"></ellipse>
                <ellipse id="Oval-1" stroke="#000000" fill="#000000" transform="translate(184.589598, 221.485668) rotate(2.000000) translate(-184.589598, -221.485668) " cx="184.589598" cy="221.485668" rx="178.74134" ry="93.5826403"></ellipse>
                <ellipse id="Oval-1" fill="#353535" transform="translate(180.681412, 202.617576) rotate(4.000000) translate(-180.681412, -202.617576) " cx="180.681412" cy="202.617576" rx="175.685518" ry="76.5"></ellipse>
                <path d="M730.065704,92.0693812 C700.318911,78.4801894 671.850439,71.0487881 615.628592,67.3800535 C559.406745,63.7113189 504.591052,88.7187448 469.409371,112.768613 C454.853139,122.719117 429.278405,145.383645 463.949498,176.99186 C498.620592,208.600076 561.197373,223.747424 615.628586,223.747425 C708.47416,223.747427 772.689258,157.087059 772.689258,157.087059 L769.743164,120.649295 C769.743164,120.649295 756.950578,104.351166 730.065704,92.0693812 L730.065704,92.0693812 Z" id="Path-1" stroke="#000000" fill="#D7D7D7"></path>
                <path d="M730.065704,93.0693812 C700.318911,79.4801894 654.499844,69.7167482 615.628592,68.3800535 C541.625866,65.8352666 490.617561,98.0871782 461.089875,121.649296 C431.562189,145.211414 519.274148,167.559864 612.119722,167.559865 C704.965296,167.559867 772.767685,141.531651 772.767685,141.531651 L769.743164,121.649295 C769.743164,121.649295 756.950578,105.351166 730.065704,93.0693812 L730.065704,93.0693812 Z" id="Path-1" fill="#FCFCFC"></path>
                <path d="M583.612133,343.642284 C603.218242,343.642284 619.112133,338.045844 619.112133,331.142284 C619.112133,324.238725 603.218242,318.642284 583.612133,318.642284 C564.006024,318.642284 548.112133,324.238725 548.112133,331.142284 C548.112133,338.045844 564.006024,343.642284 583.612133,343.642284 L583.612133,343.642284 Z" id="Oval-3" fill="#000000" transform="translate(583.612133, 331.142284) rotate(4.000000) translate(-583.612133, -331.142284) "></path>
            </g>
        </g>
    </g>
</svg>